<?xml version="1.0" encoding="utf-8"?>
<svg viewBox="0 0 1773 338" version="1.1" xmlns:xlink="http://www.w3.org/1999/xlink" xmlns="http://www.w3.org/2000/svg">
  <g id="book" fill="#B5DBEC">
    <path d="M67.95 274.85Q86.7 285.65 110.1 285.65Q134.1 285.65 153 274.7Q171.9 263.75 182.85 244.85Q193.8 225.95 193.8 201.95Q193.8 178.25 183.15 159.35Q172.5 140.45 154.2 129.5Q135.9 118.55 112.8 118.55Q92.7 118.55 76.35 127.1Q60 135.65 50.1 149.75L50.1 61.55Q50.1 56.15 46.95 53Q43.8 49.85 38.7 49.85Q33.3 49.85 30.15 53Q27 56.15 27 61.55L27 203.15Q27.3 226.55 38.25 245.3Q49.2 264.05 67.95 274.85ZM648.45 281Q651.6 284.15 656.7 284.15Q661.8 284.15 664.95 281Q668.1 277.85 668.1 272.75L668.1 225.726L690.685 205.321L752.4 281.15Q755.4 285.05 759.6 285.5Q763.8 285.95 767.7 282.65Q771.6 279.35 771.9 275.3Q772.2 271.25 769.2 267.65L706.768 190.789L766.8 136.55Q770.4 133.55 770.55 129.5Q770.7 125.45 767.4 121.85Q764.1 118.25 760.2 118.1Q756.3 117.95 752.7 121.25L668.1 197.687L668.1 61.25Q668.1 56.15 664.95 53Q661.8 49.85 656.7 49.85Q651.6 49.85 648.45 53Q645.3 56.15 645.3 61.25L645.3 272.75Q645.3 277.85 648.45 281ZM270.9 274.85Q289.8 285.65 313.8 285.65Q337.8 285.65 356.55 274.85Q375.3 264.05 386.25 245.15Q397.2 226.25 397.2 202.25Q396.9 177.95 386.1 159.05Q375.3 140.15 356.55 129.35Q337.8 118.55 313.8 118.55Q289.8 118.55 270.9 129.35Q252 140.15 241.2 159.05Q230.4 177.95 230.4 202.25Q230.4 226.25 241.2 245.15Q252 264.05 270.9 274.85ZM516.9 285.65Q492.9 285.65 474 274.85Q455.1 264.05 444.3 245.15Q433.5 226.25 433.5 202.25Q433.5 177.95 444.3 159.05Q455.1 140.15 474 129.35Q492.9 118.55 516.9 118.55Q540.9 118.55 559.65 129.35Q578.4 140.15 589.2 159.05Q600 177.95 600.3 202.25Q600.3 226.25 589.35 245.15Q578.4 264.05 559.65 274.85Q540.9 285.65 516.9 285.65ZM141.3 256.4Q127.5 264.65 110.1 264.65Q93 264.65 79.2 256.4Q65.4 248.15 57.6 234.05Q49.8 219.95 49.8 201.95Q49.8 184.25 57.6 170Q65.4 155.75 79.2 147.65Q93 139.55 110.1 139.55Q127.5 139.55 141.3 147.65Q155.1 155.75 163.05 170Q171 184.25 171 201.95Q171 219.95 163.05 234.05Q155.1 248.15 141.3 256.4ZM345 256.55Q331.2 264.65 313.8 264.65Q296.4 264.65 282.6 256.55Q268.8 248.45 260.85 234.35Q252.9 220.25 252.9 202.25Q252.9 184.25 260.85 170Q268.8 155.75 282.6 147.65Q296.4 139.55 313.8 139.55Q331.2 139.55 345 147.65Q358.8 155.75 366.6 170Q374.4 184.25 374.4 202.25Q374.4 220.25 366.6 234.35Q358.8 248.45 345 256.55ZM516.9 264.65Q534.3 264.65 548.1 256.55Q561.9 248.45 569.7 234.35Q577.5 220.25 577.5 202.25Q577.5 184.25 569.7 170Q561.9 155.75 548.1 147.65Q534.3 139.55 516.9 139.55Q499.5 139.55 485.7 147.65Q471.9 155.75 463.95 170Q456 184.25 456 202.25Q456 220.25 463.95 234.35Q471.9 248.45 485.7 256.55Q499.5 264.65 516.9 264.65Z" />
  </g>
  <g id="mark" fill="#F19408" transform="translate(790 0)">
    <path d="M654.75 281Q657.9 284.15 663 284.15Q668.1 284.15 671.25 281Q674.4 277.85 674.4 272.75L674.4 225.726L696.985 205.321L758.7 281.15Q761.7 285.05 765.9 285.5Q770.1 285.95 774 282.65Q777.9 279.35 778.2 275.3Q778.5 271.25 775.5 267.65L713.068 190.789L773.1 136.55Q776.7 133.55 776.85 129.5Q777 125.45 773.7 121.85Q770.4 118.25 766.5 118.1Q762.6 117.95 759 121.25L674.4 197.687L674.4 61.25Q674.4 56.15 671.25 53Q668.1 49.85 663 49.85Q657.9 49.85 654.75 53Q651.6 56.15 651.6 61.25L651.6 272.75Q651.6 277.85 654.75 281ZM135.6 281Q138.9 284.15 144 284.15Q149.1 284.15 152.25 281Q155.4 277.85 155.4 272.75L155.4 186.35Q155.4 186.05 155.398 185.75L155.4 185.75Q155.398 185.616 155.397 185.481Q155.396 185.356 155.394 185.234Q155.248 164.894 166.95 152.6Q178.8 140.15 197.4 140.15Q214.8 140.15 225.9 152.6Q237 165.05 237 186.35L237 272.75Q237 277.85 240.3 281Q243.6 284.15 248.7 284.15Q253.8 284.15 256.95 281Q260.1 277.85 260.1 272.75L260.1 186.35Q260.1 165.65 252.45 150.35Q244.8 135.05 231.15 126.65Q217.5 118.25 199.8 118.25Q181.2 118.25 166.5 126.65Q153.698 133.965 145.674 146.514Q138.337 133.965 126.45 126.65Q112.8 118.25 95.1 118.25Q77.7 118.25 63.9 126.65Q56.0547 131.425 50.1 138.285L50.1 131.75Q50.1 126.65 46.95 123.35Q43.8 120.05 38.7 120.05Q33.3 120.05 30.15 123.35Q27 126.65 27 131.75L27 272.75Q27 277.85 30.15 281Q33.3 284.15 38.7 284.15Q43.8 284.15 46.95 281Q50.1 277.85 50.1 272.75L50.1 183.95Q50.1 164.45 62.1 152.3Q74.1 140.15 92.7 140.15Q110.1 140.15 121.2 152.6Q132.3 165.05 132.3 186.35L132.3 272.75Q132.3 277.85 135.6 281ZM537 272.75L537 183.05Q537 168.95 544.65 158.75Q552.3 148.55 565.35 143.6Q578.4 138.65 595.2 140.15Q600.3 140.45 604.35 140.75Q608.4 141.05 611.25 139.55Q614.1 138.05 615.3 133.55Q617.1 126.05 609.6 122.15Q602.1 118.25 588.3 118.25Q570.9 118.25 556.65 126.65Q545.03 133.5 537 144.539L537 131.45Q537 126.05 534 123.05Q531 120.05 525.6 120.05Q520.2 120.05 517.2 123.05Q514.2 126.05 514.2 131.45L514.2 272.75Q514.2 278.15 517.2 281.15C519.2 283.15 522 284.15 525.6 284.15Q531 284.15 534 281.15Q537 278.15 537 272.75ZM342 274.7Q360.3 285.65 383.4 285.65Q405.3 285.65 422.55 275.6Q436.544 267.447 445.8 254.555L445.8 272.75Q445.8 277.85 449.1 281Q452.4 284.15 457.5 284.15Q462.6 284.15 465.9 281Q469.2 277.85 469.2 272.75L469.2 202.25Q468.9 178.25 457.95 159.35Q447 140.45 428.25 129.5Q409.5 118.55 385.8 118.55Q362.1 118.55 343.2 129.5Q324.3 140.45 313.35 159.35Q302.4 178.25 302.4 202.25Q302.4 225.95 313.05 244.85Q323.7 263.75 342 274.7ZM416.85 256.55Q403.2 264.65 385.8 264.65Q368.7 264.65 354.9 256.55Q341.1 248.45 333 234.2Q324.9 219.95 324.9 202.25Q324.9 184.25 333 170.15Q341.1 156.05 354.9 147.8Q368.7 139.55 385.8 139.55Q403.2 139.55 416.85 147.8Q430.5 156.05 438.45 170.15Q446.4 184.25 446.4 202.25Q446.4 219.95 438.45 234.2Q430.5 248.45 416.85 256.55Z" />
  </g>
  <g stroke="#FFFFFF" stroke-width="3" id="it" transform="translate(1586 4)">
    <path d="M31.8 84.05Q36.6 88.85 43.2 88.85Q50.1 88.85 54.9 84.05Q59.7 79.25 59.7 72.35Q59.7 64.85 54.75 60.5Q49.8 56.15 43.5 56.15Q36.9 56.15 31.95 60.5Q27 64.85 27 72.35Q27 79.25 31.8 84.05ZM139.55 276.65C147.85 281.65 157.3 284.15 167.9 284.15L174.2 284.15Q179.6 284.15 183.2 281Q186.8 277.85 186.8 272.75Q186.8 267.65 183.8 264.35Q180.8 261.05 176 261.05L167.9 261.05Q153.8 261.05 144.8 251.3Q135.8 241.55 135.8 226.25L135.8 146.15L169.7 146.15Q174.2 146.15 177.2 143.3Q180.2 140.45 180.2 136.25Q180.2 131.75 177.2 128.9Q174.2 126.05 169.7 126.05L135.8 126.05L135.8 79.55Q135.8 74.45 132.5 71.15Q129.2 67.85 124.1 67.85Q119 67.85 115.85 71.15Q112.7 74.45 112.7 79.55L112.7 126.05L93.2 126.05Q88.7 126.05 85.7 128.9Q82.7 131.75 82.7 136.25Q82.7 140.45 85.7 143.3Q88.7 146.15 93.2 146.15L112.7 146.15L112.7 226.25Q112.7 243.05 119.9 256.1Q127.1 269.15 139.55 276.65ZM34.95 281Q38.1 284.15 43.5 284.15Q48.6 284.15 51.75 281Q54.9 277.85 54.9 272.45L54.9 131.75Q54.9 126.35 51.75 123.2Q48.6 120.05 43.5 120.05Q38.1 120.05 34.95 123.2Q31.8 126.35 31.8 131.75L31.8 272.45Q31.8 277.85 34.95 281Z" />
  </g>
</svg>